<svg width="195" height="154" viewBox="0 0 195 154" fill="none" xmlns="http://www.w3.org/2000/svg">
<path d="M108.819 85.4829C108.716 85.855 108.735 86.2058 108.877 86.5352C112.412 94.8127 118.255 100.707 126.408 104.22C128.933 105.304 131.606 105.849 134.318 106.504C134.496 106.548 134.655 106.649 134.769 106.792C134.884 106.934 134.947 107.111 134.951 107.293C135.035 112.484 135.803 128.622 129.675 131.086C127.458 131.976 125.784 131.185 124.652 128.712C123.007 125.136 122.123 121.068 121.998 116.507C121.997 116.457 121.983 116.408 121.958 116.364C121.934 116.32 121.898 116.282 121.856 116.255C121.813 116.228 121.764 116.211 121.713 116.207C121.663 116.203 121.612 116.212 121.565 116.232C114.979 119.004 107.84 120.471 100.148 120.633C98.4732 120.668 96.7642 120.539 95.0209 120.248C94.966 120.239 94.9097 120.242 94.8561 120.256C94.8024 120.271 94.7527 120.298 94.7107 120.334C94.6686 120.37 94.6352 120.415 94.6129 120.466C94.5906 120.517 94.58 120.572 94.5818 120.627C94.6593 123.275 94.6378 125.732 94.5172 128C94.3429 131.33 92.9998 139.255 87.873 138.055C85.0901 137.407 83.6566 136.027 82.8624 133.326C82.4061 131.768 82.1478 130.335 82.0876 129.026C81.9498 126.156 81.7066 123.1 81.3579 119.857C81.3106 119.416 81.0674 119.16 80.6283 119.087C70.7492 117.449 62.3616 113.708 55.4656 107.864C53.4897 106.196 49.9707 106.331 50.0224 109.725C50.0654 112.369 50.0525 115.096 49.9836 117.906C49.919 120.813 48.7891 125.568 44.8632 125.208C35.0099 124.297 32.9954 96.6222 32.7113 89.4291C32.4594 83.2948 31.9752 77.8085 32.9631 71.6614C34.4912 62.1904 39.1661 54.8369 46.9876 49.6009C52.4545 45.9434 58.27 43.4109 64.4343 42.0035C69.9614 40.7416 75.2454 39.5438 80.2861 38.4102C82.9334 37.8156 85.7422 36.9664 88.7124 35.8628C90.1588 35.3281 91.547 34.5196 92.8772 33.4373C93.0294 33.3133 93.1473 33.1528 93.2196 32.9709C93.2919 32.7889 93.3163 32.5917 93.2904 32.3978C92.8772 29.3884 92.2379 26.6099 93.2646 23.6069C94.3171 20.5077 98.5528 19.6799 100.361 22.7279C100.748 23.3866 101.075 24.0796 101.342 24.8069C101.435 25.0643 101.62 25.2786 101.862 25.4089C102.104 25.5391 102.385 25.5761 102.653 25.5127L122.456 20.8414C122.667 20.7922 122.859 20.6828 123.008 20.5266C123.158 20.3704 123.257 20.1742 123.296 19.9623C123.625 18.2105 124.6 15.8941 126.634 15.7401C129.583 15.5091 131.158 16.9593 131.361 20.0906C131.419 20.9633 131.212 21.9579 131.838 22.6765C139.255 31.1636 146.199 40.4721 152.669 50.6019C157.498 58.165 161.198 65.5869 163.768 72.8677C164.504 74.9724 164.904 77.1412 165.518 79.2651C167.365 85.6946 162.819 91.3541 157.692 94.6138C155.019 96.3163 151.922 97.8628 148.4 99.253C133.775 105.028 119.803 98.4253 110.35 87.087C109.898 86.5352 109.581 86.0668 109.246 85.4379C109.065 85.0914 108.923 85.1064 108.819 85.4829Z" stroke="#808080" stroke-width="2"/>
<path d="M120.315 54.2081C119.856 54.6254 119.276 54.9016 118.608 55.0211C117.939 55.1406 117.195 55.101 116.417 54.9045C115.64 54.708 114.845 54.3584 114.077 53.8758C113.31 53.3933 112.585 52.7871 111.944 52.0919C110.649 50.6879 109.775 49.0066 109.514 47.4179C109.253 45.8292 109.626 44.4632 110.552 43.6204C111.01 43.2032 111.59 42.9269 112.259 42.8074C112.927 42.6879 113.672 42.7276 114.449 42.9241C115.226 43.1206 116.021 43.4701 116.789 43.9527C117.557 44.4353 118.282 45.0415 118.923 45.7367C120.217 47.1407 121.091 48.822 121.352 50.4106C121.613 51.9993 121.24 53.3653 120.315 54.2081Z" stroke="#808080" stroke-width="2"/>
<path d="M158.878 86.0127C158.478 85.8472 158.27 85.2703 158.298 84.409C158.327 83.5477 158.591 82.4724 159.032 81.4198C159.251 80.8985 159.506 80.3985 159.783 79.9484C160.061 79.4982 160.355 79.1066 160.65 78.796C160.944 78.4853 161.233 78.2618 161.499 78.138C161.766 78.0142 162.005 77.9927 162.203 78.0746C162.603 78.2401 162.811 78.8169 162.782 79.6783C162.754 80.5396 162.49 81.6149 162.049 82.6675C161.83 83.1888 161.575 83.6887 161.298 84.1389C161.02 84.5891 160.726 84.9807 160.431 85.2913C160.137 85.602 159.848 85.8255 159.582 85.9493C159.315 86.0731 159.076 86.0946 158.878 86.0127Z" stroke="#808080" stroke-width="2"/>
<path d="M142.444 84.3234C142.536 84.1382 142.723 84.0015 142.993 83.9212C143.263 83.8409 143.613 83.8185 144.021 83.8554C144.429 83.8922 144.888 83.9876 145.371 84.136C145.855 84.2844 146.354 84.4829 146.839 84.7203C147.324 84.9576 147.787 85.2292 148.2 85.5194C148.614 85.8095 148.97 86.1127 149.248 86.4115C149.527 86.7103 149.722 86.999 149.823 87.2609C149.924 87.5229 149.929 87.7531 149.837 87.9383C149.745 88.1236 149.559 88.2602 149.288 88.3405C149.018 88.4208 148.669 88.4432 148.26 88.4064C147.852 88.3695 147.393 88.2742 146.91 88.1258C146.426 87.9773 145.928 87.7788 145.442 87.5414C144.957 87.3041 144.494 87.0326 144.081 86.7424C143.667 86.4522 143.311 86.1491 143.033 85.8502C142.755 85.5514 142.559 85.2628 142.458 85.0008C142.357 84.7388 142.353 84.5087 142.444 84.3234Z" stroke="#808080" stroke-width="2"/>
<path d="M60.3126 123.81C63.6703 125.384 67.0645 126.689 70.4953 127.724C70.7297 127.794 70.9375 127.932 71.0918 128.121C71.2461 128.31 71.3397 128.54 71.3605 128.782C72.0901 137.4 74.4727 145.421 83.9451 148.039C89.6832 149.622 94.5108 148.704 98.428 145.286C102.438 141.789 104.259 136.669 104.833 131.497C104.844 131.391 104.891 131.292 104.965 131.215C105.04 131.138 105.139 131.088 105.247 131.073L113.066 129.963C113.359 129.92 113.555 130.036 113.654 130.31C116.475 138.241 122.564 143.695 131.475 141.654C137.101 140.367 140.997 136.684 143.162 130.605C145.286 124.657 145.777 118.06 145.577 111.945C145.564 111.539 145.753 111.28 146.145 111.169C159.014 107.64 175.285 99.4326 176.544 84.238C176.807 81.0682 176.275 77.246 174.949 72.7714C173.094 66.5173 170.606 60.4942 167.485 54.7021C160.744 42.1703 152.253 30.0942 142.82 18.9741C142.329 18.3966 141.806 17.402 141.638 16.6512C140.288 10.5554 135.614 5.59532 129.189 5.13974C126.085 4.91729 123.354 5.30443 120.995 6.30115C118.8 7.22515 117.192 9.07957 115.642 10.8121C115.138 11.3761 114.471 11.7744 113.731 11.9542L107.758 13.4044C107.438 13.4804 107.105 13.4835 106.783 13.4135C106.461 13.3435 106.159 13.2022 105.899 13.0002C104.272 11.7211 102.653 10.919 101.043 10.5939C95.955 9.55013 91.4911 10.5362 87.6514 13.552C83.4092 16.8758 82.5633 20.7579 82.1307 25.8848C82.1062 26.1789 81.9943 26.4592 81.8092 26.69C81.6241 26.9208 81.3742 27.0917 81.0911 27.181C79.4467 27.7029 77.7421 28.1456 75.9772 28.5092C70.1272 29.7156 65.0779 30.8535 60.8292 31.9229C44.067 36.1515 29.4936 46.2128 24.0633 62.9282C22.3027 68.3525 21.502 74.6429 21.6613 81.7997C21.6958 83.3097 21.84 86.3619 22.0939 90.9562C22.5631 99.4776 23.607 107.195 25.2256 114.108C25.9014 116.991 26.829 119.799 28.0085 122.533C30.9206 129.309 36.5575 135.668 44.2025 135.725C46.3075 135.745 48.3027 135.834 50.3302 135.064C55.3214 133.159 58.3433 129.167 59.7832 124.047C59.8607 123.76 60.0371 123.681 60.3126 123.81ZM108.817 85.4828C108.714 85.855 108.733 86.2058 108.875 86.5351C112.409 94.8127 118.253 100.707 126.406 104.219C128.931 105.304 131.604 105.849 134.316 106.504C134.494 106.548 134.653 106.649 134.767 106.792C134.882 106.934 134.945 107.111 134.949 107.293C135.033 112.484 135.801 128.622 129.673 131.086C127.456 131.976 125.782 131.184 124.65 128.712C123.005 125.136 122.121 121.068 121.996 116.507C121.995 116.457 121.981 116.408 121.956 116.364C121.932 116.32 121.896 116.282 121.853 116.255C121.811 116.228 121.762 116.211 121.711 116.207C121.661 116.203 121.61 116.211 121.563 116.231C114.977 119.003 107.838 120.471 100.146 120.633C98.4711 120.668 96.7621 120.539 95.0188 120.248C94.9639 120.239 94.9076 120.241 94.854 120.256C94.8003 120.271 94.7506 120.298 94.7086 120.334C94.6665 120.37 94.6331 120.415 94.6108 120.466C94.5885 120.517 94.5779 120.572 94.5797 120.627C94.6572 123.275 94.6357 125.732 94.5151 128C94.3408 131.33 92.9977 139.254 87.8709 138.055C85.088 137.406 83.6545 136.027 82.8603 133.325C82.404 131.768 82.1458 130.335 82.0855 129.026C81.9477 126.156 81.7045 123.099 81.3559 119.857C81.3085 119.416 81.0653 119.16 80.6262 119.087C70.7471 117.449 62.3595 113.708 55.4635 107.864C53.4876 106.196 49.9686 106.331 50.0203 109.725C50.0633 112.369 50.0504 115.096 49.9815 117.906C49.917 120.813 48.787 125.568 44.8612 125.208C35.0078 124.297 32.9933 96.6221 32.7092 89.4291C32.4574 83.2947 31.9731 77.8085 32.961 71.6613C34.4891 62.1903 39.164 54.8368 46.9855 49.6008C52.4524 45.9433 58.2679 43.4109 64.4322 42.0035C69.9593 40.7415 75.2433 39.5438 80.284 38.4102C82.9314 37.8155 85.7401 36.9664 88.7103 35.8627C90.1567 35.328 91.5449 34.5195 92.8751 33.4372C93.0273 33.3133 93.1452 33.1527 93.2175 32.9708C93.2898 32.7889 93.3142 32.5916 93.2883 32.3977C92.8751 29.3883 92.2358 26.6099 93.2625 23.6069C94.315 20.5077 98.5507 19.6799 100.359 22.7278C100.746 23.3866 101.073 24.0796 101.34 24.8068C101.433 25.0642 101.618 25.2786 101.86 25.4088C102.102 25.5391 102.383 25.576 102.651 25.5127L122.454 20.8413C122.665 20.7921 122.857 20.6827 123.006 20.5265C123.155 20.3703 123.255 20.1742 123.294 19.9622C123.623 18.2105 124.598 15.8941 126.632 15.7401C129.581 15.5091 131.156 16.9592 131.359 20.0906C131.417 20.9632 131.21 21.9578 131.836 22.6765C139.253 31.1636 146.197 40.472 152.666 50.6018C157.496 58.1649 161.196 65.5869 163.766 72.8677C164.502 74.9723 164.902 77.1412 165.516 79.2651C167.362 85.6946 162.817 91.3541 157.69 94.6137C155.017 96.3163 151.92 97.8627 148.398 99.253C133.773 105.028 119.801 98.4252 110.348 87.087C109.896 86.5351 109.579 86.0667 109.243 85.4379C109.063 85.0914 108.921 85.1064 108.817 85.4828Z" fill="#8056DC"/>
<path d="M109.246 85.4379C109.581 86.0668 109.898 86.5352 110.35 87.087C119.803 98.4253 133.775 105.028 148.4 99.253C151.922 97.8628 155.019 96.3163 157.692 94.6138C162.819 91.3541 167.365 85.6946 165.518 79.2651C164.904 77.1412 164.504 74.9724 163.768 72.8677C161.198 65.5869 157.498 58.165 152.669 50.6019C146.199 40.4721 139.255 31.1636 131.838 22.6765C131.212 21.9579 131.419 20.9633 131.361 20.0906C131.158 16.9593 129.583 15.5091 126.634 15.7401C124.6 15.8941 123.625 18.2105 123.296 19.9623C123.257 20.1742 123.158 20.3704 123.008 20.5266C122.859 20.6828 122.667 20.7922 122.456 20.8414L102.653 25.5127C102.385 25.5761 102.104 25.5391 101.862 25.4089C101.62 25.2786 101.435 25.0643 101.342 24.8069C101.075 24.0796 100.748 23.3866 100.361 22.7279C98.5528 19.6799 94.3171 20.5077 93.2646 23.6069C92.2379 26.6099 92.8772 29.3884 93.2904 32.3978C93.3163 32.5917 93.2919 32.7889 93.2196 32.9709C93.1473 33.1528 93.0294 33.3133 92.8772 33.4373C91.547 34.5196 90.1588 35.3281 88.7124 35.8628C85.7422 36.9664 82.9334 37.8156 80.2861 38.4102C75.2454 39.5438 69.9614 40.7416 64.4343 42.0035C58.27 43.4109 52.4545 45.9434 46.9876 49.6009C39.1661 54.8369 34.4912 62.1904 32.9631 71.6614C31.9752 77.8085 32.4594 83.2948 32.7113 89.4291C32.9954 96.6222 35.0099 124.297 44.8632 125.208C48.7891 125.568 49.919 120.813 49.9836 117.906C50.0525 115.096 50.0654 112.369 50.0224 109.725C49.9707 106.331 53.4897 106.196 55.4656 107.864C62.3616 113.708 70.7492 117.449 80.6283 119.087C81.0674 119.16 81.3106 119.416 81.3579 119.857C81.7066 123.1 81.9498 126.156 82.0876 129.026C82.1479 130.335 82.4061 131.768 82.8624 133.326C83.6566 136.027 85.0901 137.407 87.873 138.055C92.9998 139.255 94.3429 131.33 94.5172 128C94.6378 125.732 94.6593 123.275 94.5818 120.627C94.58 120.572 94.5906 120.517 94.6129 120.466C94.6352 120.415 94.6686 120.37 94.7107 120.334C94.7527 120.298 94.8024 120.271 94.856 120.256C94.9097 120.242 94.966 120.239 95.0209 120.248C96.7642 120.539 98.4732 120.668 100.148 120.633C107.84 120.471 114.979 119.004 121.565 116.232C121.612 116.212 121.663 116.203 121.713 116.207C121.764 116.211 121.813 116.228 121.856 116.255C121.898 116.282 121.934 116.32 121.958 116.364C121.983 116.408 121.997 116.457 121.998 116.507C122.123 121.068 123.007 125.136 124.652 128.712C125.784 131.185 127.458 131.976 129.675 131.086C135.803 128.622 135.035 112.484 134.951 107.293C134.947 107.111 134.884 106.934 134.769 106.792C134.655 106.649 134.496 106.548 134.318 106.504C131.606 105.849 128.933 105.304 126.408 104.22C118.255 100.707 112.412 94.8127 108.877 86.5352C108.735 86.2058 108.716 85.855 108.819 85.4829C108.923 85.1064 109.065 85.0914 109.246 85.4379ZM120.313 54.2081C119.854 54.6254 119.274 54.9017 118.606 55.0211C117.937 55.1406 117.193 55.101 116.416 54.9045C115.638 54.708 114.843 54.3584 114.075 53.8759C113.308 53.3933 112.583 52.7871 111.942 52.0919C110.647 50.6879 109.773 49.0066 109.512 47.4179C109.251 45.8292 109.624 44.4632 110.55 43.6205C111.008 43.2032 111.588 42.9269 112.257 42.8074C112.926 42.6879 113.67 42.7276 114.447 42.9241C115.224 43.1206 116.02 43.4701 116.787 43.9527C117.555 44.4353 118.28 45.0415 118.921 45.7367C120.215 47.1407 121.089 48.822 121.35 50.4107C121.611 51.9994 121.238 53.3653 120.313 54.2081ZM158.877 86.0126C158.477 85.8471 158.269 85.2702 158.298 84.4089C158.327 83.5476 158.59 82.4723 159.031 81.4196C159.25 80.8984 159.505 80.3984 159.782 79.9482C160.06 79.4981 160.354 79.1065 160.649 78.7958C160.943 78.4852 161.232 78.2616 161.498 78.1379C161.765 78.0141 162.004 77.9926 162.202 78.0745C162.602 78.24 162.811 78.8168 162.782 79.6782C162.753 80.5395 162.489 81.6148 162.048 82.6674C161.829 83.1887 161.574 83.6886 161.297 84.1388C161.019 84.589 160.725 84.9806 160.43 85.2912C160.136 85.6018 159.847 85.8254 159.581 85.9492C159.314 86.073 159.075 86.0945 158.877 86.0126ZM142.444 84.3235C142.536 84.1383 142.722 84.0016 142.993 83.9213C143.263 83.841 143.613 83.8186 144.021 83.8555C144.429 83.8923 144.888 83.9877 145.371 84.1361C145.855 84.2845 146.354 84.483 146.839 84.7204C147.324 84.9577 147.787 85.2293 148.2 85.5194C148.614 85.8096 148.97 86.1128 149.248 86.4116C149.526 86.7104 149.722 86.999 149.823 87.261C149.924 87.523 149.929 87.7532 149.837 87.9384C149.745 88.1236 149.559 88.2603 149.288 88.3406C149.018 88.4209 148.668 88.4433 148.26 88.4064C147.852 88.3696 147.393 88.2742 146.91 88.1258C146.426 87.9774 145.928 87.7789 145.442 87.5415C144.957 87.3042 144.494 87.0326 144.081 86.7425C143.667 86.4523 143.311 86.1491 143.033 85.8503C142.755 85.5515 142.559 85.2629 142.458 85.0009C142.357 84.7389 142.353 84.5087 142.444 84.3235Z" fill="white"/>
<path d="M118.919 45.7368C121.615 48.6605 122.238 52.4533 120.311 54.2082C118.384 55.9631 114.636 55.0156 111.94 52.0919C109.244 49.1682 108.621 45.3754 110.548 43.6205C112.475 41.8656 116.223 42.8131 118.919 45.7368Z" fill="#8056DC"/>
<path d="M162.049 82.6675C161.131 84.8595 159.711 86.3572 158.878 86.0126C158.045 85.6681 158.115 83.6118 159.033 81.4197C159.951 79.2277 161.371 77.73 162.203 78.0746C163.036 78.4191 162.967 80.4754 162.049 82.6675Z" fill="#8056DC"/>
<path d="M145.442 87.5415C143.401 86.5433 142.058 85.1025 142.444 84.3235C142.83 83.5445 144.797 83.7222 146.839 84.7204C148.88 85.7186 150.222 87.1594 149.837 87.9384C149.451 88.7174 147.483 88.5397 145.442 87.5415Z" fill="#8056DC"/>
<path d="M172.719 7.98834C172.719 7.98834 172.855 7.7002 173.128 7.7002C173.537 7.70019 173.674 7.98834 173.674 7.98834C173.674 7.98834 175.33 14.8494 178.175 17.9294C180.871 20.8477 186.905 22.8279 186.905 22.8279C186.905 22.8279 187.178 22.972 187.178 23.2601C187.178 23.5482 186.905 23.6923 186.905 23.6923C186.905 23.6923 180.892 25.7311 178.175 28.5908C175.273 31.6457 173.537 38.5319 173.537 38.5319C173.537 38.5319 173.401 38.9641 173.128 38.9641C172.862 38.9641 172.719 38.5319 172.719 38.5319C172.719 38.5319 170.94 31.6565 168.081 28.5908C165.455 25.7756 159.624 23.8364 159.624 23.8364C159.624 23.8364 159.078 23.5784 159.078 23.2601C159.078 22.9418 159.624 22.6838 159.624 22.6838C159.624 22.6838 165.438 20.7265 168.081 17.9294C170.976 14.866 172.719 7.98834 172.719 7.98834Z" fill="#8056DC"/>
<path d="M159.844 115.895C159.844 115.895 160.017 115.5 160.364 115.5C160.71 115.5 160.884 115.895 160.884 115.895C160.884 115.895 161.704 118.696 162.791 120.041C163.923 121.443 166.431 122.608 166.431 122.608C166.431 122.608 166.778 122.805 166.778 123.2C166.778 123.595 166.431 123.793 166.431 123.793C166.431 123.793 163.923 124.958 162.791 126.359C161.704 127.704 160.884 130.505 160.884 130.505C160.884 130.505 160.71 130.9 160.364 130.9C160.017 130.9 159.844 130.505 159.844 130.505C159.844 130.505 158.89 127.713 157.763 126.359C156.652 125.024 154.296 123.793 154.296 123.793C154.296 123.793 153.949 123.595 153.949 123.2C153.949 122.805 154.296 122.608 154.296 122.608C154.296 122.608 156.652 121.376 157.763 120.041C158.89 118.688 159.844 115.895 159.844 115.895Z" fill="#8056DC"/>
<path d="M57.2108 10.6617C57.2108 10.6617 57.3842 10.2668 57.7309 10.2668C58.0776 10.2668 58.251 10.6617 58.251 10.6617C58.251 10.6617 59.0711 13.4629 60.158 14.8079C61.2903 16.2091 63.7986 17.3745 63.7986 17.3745C63.7986 17.3745 64.1454 17.572 64.1454 17.9668C64.1454 18.3617 63.7986 18.5592 63.7986 18.5592C63.7986 18.5592 61.2903 19.7246 60.158 21.1258C59.0711 22.4708 58.251 25.272 58.251 25.272C58.251 25.272 58.0776 25.6668 57.7309 25.6668C57.3842 25.6668 57.2108 25.272 57.2108 25.272C57.2108 25.272 56.2567 22.4795 55.1304 21.1258C54.0196 19.7908 51.6631 18.5592 51.6631 18.5592C51.6631 18.5592 51.3164 18.3617 51.3164 17.9668C51.3164 17.572 51.6631 17.3745 51.6631 17.3745C51.6631 17.3745 54.0196 16.1429 55.1304 14.8079C56.2567 13.4542 57.2108 10.6617 57.2108 10.6617Z" fill="#8056DC"/>
</svg>
